<svg xmlns="http://www.w3.org/2000/svg" viewBox="0 0 500 500"><g id="freepik--Floor--inject-332"><ellipse id="freepik--floor--inject-332" cx="250" cy="355.72" rx="240.78" ry="139.01" style="fill:#fafafa"></ellipse></g><g id="freepik--Shadows--inject-332"><path id="freepik--Shadow--inject-332" d="M207.19,305.64l-164,94.7c-3,1.72-3,4.55,0,6.28l101.62,58.67c13.4,7.74,35.32,7.74,48.72,0L354,372.61c3-1.73,3-4.56,0-6.29l-105.1-60.68C237.46,299,218.67,299,207.19,305.64Z" style="fill:#e0e0e0"></path><path id="freepik--shadow--inject-332" d="M431.75,408.19,313.44,476.36a4.09,4.09,0,0,1-3.73,0l-19-11-17.76-10.26a1.13,1.13,0,0,1,0-2.15l118.31-68.17a4.12,4.12,0,0,1,3.73,0L431.75,406A1.13,1.13,0,0,1,431.75,408.19Z" style="fill:#e0e0e0"></path></g><g id="freepik--Graphics--inject-332"><g id="freepik--Contacts--inject-332"><path d="M429.9,334.44c4.29-2.47,7.77-9.83,7.77-16.44s-3.48-9.95-7.77-7.47-7.77,9.84-7.77,16.44S425.61,336.92,429.9,334.44Zm12.59,2.95c-.34-3.17-2.22-4.56-4.43-3.28l-16.32,9.42c-2.21,1.27-4.09,4.83-4.42,8.38l-.77,8c-.17,1.85.71,2.93,1.86,2.26L439,350.26l.34-3.59a17.36,17.36,0,0,1,3.2-8.53Z" style="fill:#e0e0e0"></path><path d="M453.29,328.75c4.28-2.47,7.76-9.84,7.76-16.44s-3.48-9.95-7.76-7.47-7.77,9.83-7.77,16.44S449,331.23,453.29,328.75Zm13.34,10-.76-7.1c-.34-3.16-2.22-4.55-4.42-3.27l-16.33,9.42c-2.2,1.27-4.08,4.83-4.42,8.39l-.76,8c-.18,1.86.7,2.93,1.86,2.27l23-13.27A5,5,0,0,0,466.63,338.79Z" style="fill:#ebebeb"></path></g><g id="freepik--Like--inject-332"><path d="M241,60.12s-3.18-7-3.41-8,.92-5.44,1.05-6.25-3.64-1.75-5.34,1a12,12,0,0,0-2,7.95L222,53.19a2.91,2.91,0,0,0-3.27,2.46,3.18,3.18,0,0,0,1.06,3,2.64,2.64,0,0,0-2.31,2.3,3,3,0,0,0,1.79,3.21,3.56,3.56,0,0,0-1,2.11,3.24,3.24,0,0,0,2.16,3.16,5.73,5.73,0,0,0-.76,2,3.26,3.26,0,0,0,2.93,3.49L238,77.54Z" style="fill:#e0e0e0"></path><path d="M243.26,60l-3.42,20.27,6.72,1.13L250,61.12Zm.31,19A1.42,1.42,0,1,1,245,77.54,1.42,1.42,0,0,1,243.57,79Z" style="fill:#e0e0e0"></path></g><g id="freepik--like--inject-332"><path d="M440.4,263.91a.73.73,0,0,1-.74-.57l-5.31-24.24a.75.75,0,0,1,.1-.55.73.73,0,0,1,.46-.32l8-1.75a.72.72,0,0,1,.87.55l5.3,24.24a.76.76,0,0,1-.09.55.74.74,0,0,1-.46.31l-8,1.76Zm-4.47-24.41,5,22.81,6.61-1.44-5-22.82Zm14.53,19.26a.71.71,0,0,1-.74-.57l-4.56-20.83a.75.75,0,0,1,0-.42c1.37-3.42,3.45-8.83,3.6-9.73s-.84-4.34-1.26-5.84c-.18-.62-.32-1.11-.37-1.35s-.08-1.06,1.17-1.61A5.54,5.54,0,0,1,455,220.3a15,15,0,0,1,3,9L468.18,227a4.23,4.23,0,0,1,4.94,3.32,4.53,4.53,0,0,1-.53,3.36,4,4,0,0,1,2.35,2.93,4.4,4.4,0,0,1-1.57,4.29,6.18,6.18,0,0,1,.9,2.16,4.89,4.89,0,0,1-2.08,4.43,8.61,8.61,0,0,1,.7,1.93,4.64,4.64,0,0,1-3.89,5.25l-18.42,4Zm-3.83-21.49,4.35,19.9,17.71-3.88a3.24,3.24,0,0,0,2.78-3.52,6.34,6.34,0,0,0-.92-2.15.74.74,0,0,1-.09-.69.75.75,0,0,1,.53-.45c1.11-.24,2.05-2.21,1.86-3.07a3.65,3.65,0,0,0-1-2.07.73.73,0,0,1-.27-.66.75.75,0,0,1,.42-.58,2.85,2.85,0,0,0,1.56-3.14,2.42,2.42,0,0,0-2.22-2.07.73.73,0,0,1-.48-1.26,3.13,3.13,0,0,0,.88-3,2.78,2.78,0,0,0-3.21-2.21l-11.14,2.44a.7.7,0,0,1-.62-.16.72.72,0,0,1-.26-.58,13.84,13.84,0,0,0-2.7-9,3.94,3.94,0,0,0-3.21-1.67,3.53,3.53,0,0,0-1.93.44c.06.25.17.63.3,1.08.78,2.8,1.47,5.4,1.3,6.47C450,228.72,447.23,235.75,446.63,237.27Z" style="fill:#e0e0e0"></path></g><g id="freepik--like--inject-332"><path d="M36.47,242.05s1.38-7.8,1.33-8.93-2.32-5.22-2.67-6,3.2-2.7,5.6-.42a12.46,12.46,0,0,1,4,7.47l8.93-4a3,3,0,0,1,3.9,1.61,3.33,3.33,0,0,1-.28,3.26,2.72,2.72,0,0,1,2.91,1.71,3.08,3.08,0,0,1-1,3.67,3.75,3.75,0,0,1,1.53,1.87c.43,1-.09,3.16-1.35,3.72a5.92,5.92,0,0,1,1.29,1.86,3.38,3.38,0,0,1-2,4.26l-14.77,6.6Z" style="fill:#e0e0e0"></path><path d="M34.13,242.52l-6.43,2.87,8.67,19.43L42.81,262Zm4.12,19.1a1.26,1.26,0,1,1,1.26-1.26A1.25,1.25,0,0,1,38.25,261.62Z" style="fill:#e0e0e0"></path></g><g id="freepik--Star--inject-332"><path d="M49.2,319.63a2,2,0,0,1-.48-.07,1.55,1.55,0,0,1-1.06-1.25l-1.06-6.89-6.28-3a1.55,1.55,0,0,1,0-2.78l6.23-3.14.95-6.91a1.55,1.55,0,0,1,2.64-.88l4.91,5,6.86-1.23a1.55,1.55,0,0,1,1.65,2.24l-3.19,6.19L63.64,313a1.55,1.55,0,0,1-.11,1.64,1.52,1.52,0,0,1-1.51.62l-6.88-1.12-4.83,5A1.55,1.55,0,0,1,49.2,319.63ZM49,295.17a.65.65,0,0,0-.19,0,.59.59,0,0,0-.4.47l-1,7.42-6.69,3.36a.58.58,0,0,0-.32.53.57.57,0,0,0,.33.52l6.74,3.26,1.13,7.4a.59.59,0,0,0,.4.47.56.56,0,0,0,.6-.16l5.18-5.39,7.39,1.2a.57.57,0,0,0,.57-.23.58.58,0,0,0,0-.62l-3.53-6.6,3.43-6.65a.6.6,0,0,0,0-.62.62.62,0,0,0-.58-.23l-7.36,1.33-5.26-5.32A.62.62,0,0,0,49,295.17Zm.18,24.46a2,2,0,0,1-.48-.07,1.55,1.55,0,0,1-1.06-1.25l-1.06-6.89-6.28-3a1.55,1.55,0,0,1,0-2.78l6.23-3.14.95-6.91a1.55,1.55,0,0,1,2.64-.88l4.91,5,6.86-1.23a1.55,1.55,0,0,1,1.65,2.24l-3.19,6.19L63.64,313a1.55,1.55,0,0,1-.11,1.64,1.52,1.52,0,0,1-1.51.62l-6.88-1.12-4.83,5A1.55,1.55,0,0,1,49.2,319.63ZM49,295.17a.65.65,0,0,0-.19,0,.59.59,0,0,0-.4.47l-1,7.42-6.69,3.36a.58.58,0,0,0-.32.53.57.57,0,0,0,.33.52l6.74,3.26,1.13,7.4a.59.59,0,0,0,.4.47.56.56,0,0,0,.6-.16l5.18-5.39,7.39,1.2a.57.57,0,0,0,.57-.23.58.58,0,0,0,0-.62l-3.53-6.6,3.43-6.65a.6.6,0,0,0,0-.62.62.62,0,0,0-.58-.23l-7.36,1.33-5.26-5.32A.62.62,0,0,0,49,295.17Z" style="fill:#C598CA"></path><path d="M49.2,319.63a2,2,0,0,1-.48-.07,1.55,1.55,0,0,1-1.06-1.25l-1.06-6.89-6.28-3a1.55,1.55,0,0,1,0-2.78l6.23-3.14.95-6.91a1.55,1.55,0,0,1,2.64-.88l4.91,5,6.86-1.23a1.55,1.55,0,0,1,1.65,2.24l-3.19,6.19L63.64,313a1.55,1.55,0,0,1-.11,1.64,1.52,1.52,0,0,1-1.51.62l-6.88-1.12-4.83,5A1.55,1.55,0,0,1,49.2,319.63ZM49,295.17a.65.65,0,0,0-.19,0,.59.59,0,0,0-.4.47l-1,7.42-6.69,3.36a.58.58,0,0,0-.32.53.57.57,0,0,0,.33.52l6.74,3.26,1.13,7.4a.59.59,0,0,0,.4.47.56.56,0,0,0,.6-.16l5.18-5.39,7.39,1.2a.57.57,0,0,0,.57-.23.58.58,0,0,0,0-.62l-3.53-6.6,3.43-6.65a.6.6,0,0,0,0-.62.62.62,0,0,0-.58-.23l-7.36,1.33-5.26-5.32A.62.62,0,0,0,49,295.17Zm.18,24.46a2,2,0,0,1-.48-.07,1.55,1.55,0,0,1-1.06-1.25l-1.06-6.89-6.28-3a1.55,1.55,0,0,1,0-2.78l6.23-3.14.95-6.91a1.55,1.55,0,0,1,2.64-.88l4.91,5,6.86-1.23a1.55,1.55,0,0,1,1.65,2.24l-3.19,6.19L63.64,313a1.55,1.55,0,0,1-.11,1.64,1.52,1.52,0,0,1-1.51.62l-6.88-1.12-4.83,5A1.55,1.55,0,0,1,49.2,319.63ZM49,295.17a.65.65,0,0,0-.19,0,.59.59,0,0,0-.4.47l-1,7.42-6.69,3.36a.58.58,0,0,0-.32.53.57.57,0,0,0,.33.52l6.74,3.26,1.13,7.4a.59.59,0,0,0,.4.47.56.56,0,0,0,.6-.16l5.18-5.39,7.39,1.2a.57.57,0,0,0,.57-.23.58.58,0,0,0,0-.62l-3.53-6.6,3.43-6.65a.6.6,0,0,0,0-.62.62.62,0,0,0-.58-.23l-7.36,1.33-5.26-5.32A.62.62,0,0,0,49,295.17Z" style="fill:#fff;opacity:0.6000000000000001"></path></g><g id="freepik--Clouds--inject-332"><g style="opacity:0.7000000000000001"><path d="M41.92,94a6.35,6.35,0,0,1-3.2-.84C36,91.59,34.44,88,34.44,83.35c0-8.52,5.22-18.46,11.63-22.16l.89-.52a27.66,27.66,0,0,1-.28-4c0-13.29,8.12-28.79,18.11-34.55,4.41-2.55,8.72-2.91,12.11-1,3.6,2,5.9,6.41,6.44,12.22A26.53,26.53,0,0,1,92,24.44c3.57-2.06,7-2.32,9.8-.74,3.28,1.89,5.16,6.23,5.16,11.9a26.84,26.84,0,0,1-.15,2.8,4.78,4.78,0,0,1,4.69-.18c1.68,1,2.64,3.15,2.64,6,0,5.18-3.18,11.23-7.09,13.49L46.63,92.6A9.55,9.55,0,0,1,41.92,94ZM72.16,21a13.81,13.81,0,0,0-6.8,2C55.69,28.65,47.82,43.7,47.82,56.63a27.56,27.56,0,0,0,.32,4.25.56.56,0,0,1-.28.59l-1.23.7c-6.09,3.52-11.05,13-11.05,21.18,0,4.25,1.35,7.47,3.71,8.83,1.87,1.08,4.28.88,6.78-.57l60.42-34.88C110.09,54.65,113,49,113,44.22c0-2.43-.75-4.25-2.07-5a3.83,3.83,0,0,0-3.88.36h0l-.65.37a.57.57,0,0,1-.85-.57,27.31,27.31,0,0,0,.27-3.77c0-5.25-1.67-9.23-4.59-10.92-2.38-1.37-5.46-1.1-8.67.75-3.39,2-6.65,5.51-9.19,10a.57.57,0,0,1-1.07-.26c-.17-6.32-2.35-11.1-6-13.12A8.57,8.57,0,0,0,72.16,21Zm34.62,18.06h0Z" style="fill:#C598CA"></path></g><g style="opacity:0.30000000000000004"><path d="M93.63,72.68a4.27,4.27,0,0,1-2.14-.56c-1.79-1-2.81-3.37-2.81-6.4,0-5.47,3.35-11.85,7.47-14.23l.44-.26a19.58,19.58,0,0,1-.15-2.46c0-8.48,5.19-18.39,11.58-22.08,2.86-1.65,5.66-1.88,7.88-.64s3.68,3.86,4.13,7.33a16.65,16.65,0,0,1,5.24-5.19c2.34-1.35,4.62-1.51,6.42-.47,2.15,1.24,3.38,4.06,3.38,7.73,0,.46,0,.94-.06,1.43a3.08,3.08,0,0,1,2.84,0c1.13.65,1.77,2.1,1.77,4,0,3.41-2,7.24-4.59,8.73L96.72,71.76A6.25,6.25,0,0,1,93.63,72.68ZM112.79,26.4a8.52,8.52,0,0,0-4.2,1.28c-6.08,3.5-11,13-11,21.09a17.54,17.54,0,0,0,.2,2.67.56.56,0,0,1-.27.58l-.78.45c-3.81,2.2-6.91,8.14-6.91,13.25,0,2.61.82,4.59,2.25,5.41a4,4,0,0,0,4.09-.35l38.31-22.12c2.22-1.28,4-4.76,4-7.75,0-1.46-.44-2.56-1.21-3a2.21,2.21,0,0,0-2.25.23h0l-.42.24a.56.56,0,0,1-.84-.57,17.55,17.55,0,0,0,.16-2.36c0-3.26-1-5.71-2.8-6.74-1.44-.84-3.32-.67-5.29.47a16.58,16.58,0,0,0-5.75,6.27.57.57,0,0,1-.63.27.56.56,0,0,1-.43-.54c-.11-3.93-1.45-6.89-3.68-8.14A5.28,5.28,0,0,0,112.79,26.4Z" style="fill:#C598CA"></path></g></g><g id="freepik--Message--inject-332"><path id="freepik--message--inject-332" d="M312,23,275.77,43.88a7.84,7.84,0,0,0-3.28,6.26V78.91c0,2.41,1.47,3.53,3.28,2.48L312,60.49a7.88,7.88,0,0,0,3.28-6.27V25.45C315.26,23,313.79,21.92,312,23ZM301.23,47.88l12.7-23.07a2.5,2.5,0,0,1,.28,1.24V53.42Zm-25.46-2.61L312,24.37a1.54,1.54,0,0,1,1.26-.21l-18,32.66c-.77,1.4-2,2.1-2.75,1.59l-18-11.89A3.94,3.94,0,0,1,275.77,45.27ZM273.82,48l12.7,8.4-13,20.53V49.54A4.86,4.86,0,0,1,273.82,48ZM312,59.09,275.77,80c-1.15.66-2.08,0-2.21-1.37L287.3,56.89l4.48,3a2,2,0,0,0,2.1-.12,5.92,5.92,0,0,0,2.09-2.3l4.48-8.13,13.74,5.86A5.32,5.32,0,0,1,312,59.09Z" style="fill:#C598CA"></path><path id="freepik--message--inject-332" d="M312,23,275.77,43.88a7.84,7.84,0,0,0-3.28,6.26V78.91c0,2.41,1.47,3.53,3.28,2.48L312,60.49a7.88,7.88,0,0,0,3.28-6.27V25.45C315.26,23,313.79,21.92,312,23ZM301.23,47.88l12.7-23.07a2.5,2.5,0,0,1,.28,1.24V53.42Zm-25.46-2.61L312,24.37a1.54,1.54,0,0,1,1.26-.21l-18,32.66c-.77,1.4-2,2.1-2.75,1.59l-18-11.89A3.94,3.94,0,0,1,275.77,45.27ZM273.82,48l12.7,8.4-13,20.53V49.54A4.86,4.86,0,0,1,273.82,48ZM312,59.09,275.77,80c-1.15.66-2.08,0-2.21-1.37L287.3,56.89l4.48,3a2,2,0,0,0,2.1-.12,5.92,5.92,0,0,0,2.09-2.3l4.48-8.13,13.74,5.86A5.32,5.32,0,0,1,312,59.09Z" style="fill:#fff;opacity:0.6000000000000001"></path></g><g id="freepik--World--inject-332"><path d="M398.09,247.43c-4.74-2.74-10.76-2.28-16.95,1.3-13.78,8-25,29.33-25,47.66,0,9.84,3.25,17.35,8.93,20.63a13.32,13.32,0,0,0,6.75,1.77,20.65,20.65,0,0,0,10.2-3.06c13.78-8,25-29.35,25-47.68C407,258.22,403.77,250.71,398.09,247.43ZM358,294.81a61.12,61.12,0,0,1,8-27,13,13,0,0,0,3.5,1.1,65.16,65.16,0,0,0-4.36,21.81Zm24.48-12.07,13.72-7.92a64,64,0,0,1-4.39,20.57,19.35,19.35,0,0,0-9.33,2.33Zm0-2.07V265.75a40.94,40.94,0,0,0,9.86-8.63c2.43,3.87,3.82,9.22,3.89,15.61Zm0-17V250.49a13.08,13.08,0,0,1,8.8,5.12A40.53,40.53,0,0,1,382.48,263.63Zm-1.79,1.09a18.83,18.83,0,0,1-8.63,2.55,69.37,69.37,0,0,1,8.63-15.21Zm-9.35,4.35c.17,0,.32,0,.49,0a19.84,19.84,0,0,0,8.86-2.38v15L367,289.64A64.52,64.52,0,0,1,371.34,269.07Zm9.35,14.71V298.7a40.63,40.63,0,0,0-9.87,8.64c-2.43-3.87-3.82-9.22-3.9-15.62Zm0,17V314a13.08,13.08,0,0,1-8.81-5.12A40.62,40.62,0,0,1,380.69,300.82Zm1.79-1.09a18.79,18.79,0,0,1,8.62-2.55,69.49,69.49,0,0,1-8.62,15.2Zm15.55-26,7.14-4.13a61.17,61.17,0,0,1-8,27,12.94,12.94,0,0,0-3.51-1.11A65.12,65.12,0,0,0,398,273.77Zm7.18-6.22L398,271.71c-.22-6.57-1.79-12.08-4.46-16.06a59.74,59.74,0,0,0,4.28-6.22C402.43,252.52,405.11,259,405.21,267.55Zm-8.93-19a60.45,60.45,0,0,1-3.85,5.63,14.78,14.78,0,0,0-8-5.12,17.15,17.15,0,0,1,6.87-1.58A11.76,11.76,0,0,1,396.28,248.53Zm-18.88,5a72.63,72.63,0,0,0-7.22,13.59,11.14,11.14,0,0,1-3.29-1A50.42,50.42,0,0,1,377.4,253.57ZM358,296.9l7.2-4.16c.21,6.58,1.79,12.09,4.46,16.07a59.59,59.59,0,0,0-4.28,6.21C360.74,311.93,358.06,305.42,358,296.9Zm8.94,19a58,58,0,0,1,3.83-5.6,14.89,14.89,0,0,0,7.92,5.1C374.35,317.29,370.28,317.46,366.9,315.91Zm18.85-5A72.85,72.85,0,0,0,393,297.29a11.29,11.29,0,0,1,3.3.95A50.59,50.59,0,0,1,385.75,310.9Z" style="fill:#C598CA"></path><path d="M398.09,247.43c-4.74-2.74-10.76-2.28-16.95,1.3-13.78,8-25,29.33-25,47.66,0,9.84,3.25,17.35,8.93,20.63a13.32,13.32,0,0,0,6.75,1.77,20.65,20.65,0,0,0,10.2-3.06c13.78-8,25-29.35,25-47.68C407,258.22,403.77,250.71,398.09,247.43ZM358,294.81a61.12,61.12,0,0,1,8-27,13,13,0,0,0,3.5,1.1,65.16,65.16,0,0,0-4.36,21.81Zm24.48-12.07,13.72-7.92a64,64,0,0,1-4.39,20.57,19.35,19.35,0,0,0-9.33,2.33Zm0-2.07V265.75a40.94,40.94,0,0,0,9.86-8.63c2.43,3.87,3.82,9.22,3.89,15.61Zm0-17V250.49a13.08,13.08,0,0,1,8.8,5.12A40.53,40.53,0,0,1,382.48,263.63Zm-1.79,1.09a18.83,18.83,0,0,1-8.63,2.55,69.37,69.37,0,0,1,8.63-15.21Zm-9.35,4.35c.17,0,.32,0,.49,0a19.84,19.84,0,0,0,8.86-2.38v15L367,289.64A64.52,64.52,0,0,1,371.34,269.07Zm9.35,14.71V298.7a40.63,40.63,0,0,0-9.87,8.64c-2.43-3.87-3.82-9.22-3.9-15.62Zm0,17V314a13.08,13.08,0,0,1-8.81-5.12A40.62,40.62,0,0,1,380.69,300.82Zm1.79-1.09a18.79,18.79,0,0,1,8.62-2.55,69.49,69.49,0,0,1-8.62,15.2Zm15.55-26,7.14-4.13a61.17,61.17,0,0,1-8,27,12.94,12.94,0,0,0-3.51-1.11A65.12,65.12,0,0,0,398,273.77Zm7.18-6.22L398,271.71c-.22-6.57-1.79-12.08-4.46-16.06a59.74,59.74,0,0,0,4.28-6.22C402.43,252.52,405.11,259,405.21,267.55Zm-8.93-19a60.45,60.45,0,0,1-3.85,5.63,14.78,14.78,0,0,0-8-5.12,17.15,17.15,0,0,1,6.87-1.58A11.76,11.76,0,0,1,396.28,248.53Zm-18.88,5a72.63,72.63,0,0,0-7.22,13.59,11.14,11.14,0,0,1-3.29-1A50.42,50.42,0,0,1,377.4,253.57ZM358,296.9l7.2-4.16c.21,6.58,1.79,12.09,4.46,16.07a59.59,59.59,0,0,0-4.28,6.21C360.74,311.93,358.06,305.42,358,296.9Zm8.94,19a58,58,0,0,1,3.83-5.6,14.89,14.89,0,0,0,7.92,5.1C374.35,317.29,370.28,317.46,366.9,315.91Zm18.85-5A72.85,72.85,0,0,0,393,297.29a11.29,11.29,0,0,1,3.3.95A50.59,50.59,0,0,1,385.75,310.9Z" style="fill:#fff;opacity:0.6000000000000001"></path></g></g><g id="freepik--Device--inject-332"><g id="freepik--Modem--inject-332"><path d="M87.24,283.26a1.63,1.63,0,0,0-1-1.35,5.17,5.17,0,0,0-4.66,0,1.63,1.63,0,0,0-1,1.35V348a1.63,1.63,0,0,0,1,1.35,5.17,5.17,0,0,0,4.66,0,1.63,1.63,0,0,0,1-1.35Z" style="fill:#C598CA"></path><path d="M81.61,284.61a5.17,5.17,0,0,0,4.66,0,1.42,1.42,0,0,0,0-2.7,5.17,5.17,0,0,0-4.66,0,1.42,1.42,0,0,0,0,2.7Z" style="fill:#fff;opacity:0.30000000000000004"></path><path d="M85.4,254.23a.73.73,0,0,0-.43-.59,2.27,2.27,0,0,0-2.06,0,.73.73,0,0,0-.43.59v28.59a.73.73,0,0,0,.43.59,2.27,2.27,0,0,0,2.06,0,.73.73,0,0,0,.43-.59Z" style="fill:#C598CA"></path><path d="M82.91,254.83a2.27,2.27,0,0,0,2.06,0,.75.75,0,0,0,.43-.6.73.73,0,0,0-.43-.59,2.27,2.27,0,0,0-2.06,0,.73.73,0,0,0-.43.59A.75.75,0,0,0,82.91,254.83Z" style="fill:#fff;opacity:0.30000000000000004"></path><path d="M197.45,219.63a1.64,1.64,0,0,0-1-1.35,5.19,5.19,0,0,0-4.67,0,1.64,1.64,0,0,0-1,1.35v64.74a1.62,1.62,0,0,0,1,1.34,5.13,5.13,0,0,0,4.67,0,1.62,1.62,0,0,0,1-1.34Z" style="fill:#C598CA"></path><path d="M191.82,221a5.13,5.13,0,0,0,4.67,0,1.42,1.42,0,0,0,0-2.69,5.19,5.19,0,0,0-4.67,0,1.42,1.42,0,0,0,0,2.69Z" style="fill:#fff;opacity:0.30000000000000004"></path><path d="M195.61,190.6a.71.71,0,0,0-.43-.59,2.27,2.27,0,0,0-2.06,0,.72.72,0,0,0-.42.59v28.59a.72.72,0,0,0,.42.59,2.27,2.27,0,0,0,2.06,0,.71.71,0,0,0,.43-.59Z" style="fill:#C598CA"></path><path d="M193.12,191.2a2.33,2.33,0,0,0,2.06,0,.73.73,0,0,0,.43-.6.71.71,0,0,0-.43-.59,2.27,2.27,0,0,0-2.06,0,.72.72,0,0,0-.42.59A.73.73,0,0,0,193.12,191.2Z" style="fill:#fff;opacity:0.30000000000000004"></path><path d="M148.11,457.61,54.45,403.54a13.52,13.52,0,0,1-5.71-8l-.06-.33A8.28,8.28,0,0,1,52.41,387L206.67,298c10.77-6.22,28.4-6.22,39.18,0l99,57.15a8.67,8.67,0,0,1,3.92,8.18h0a12.83,12.83,0,0,1-5.52,8.06L193.84,457.61C181.26,464.87,160.68,464.87,148.11,457.61Z" style="fill:#C598CA"></path><path d="M148.11,457.61,54.45,403.54a13.52,13.52,0,0,1-5.71-8l-.06-.33A8.28,8.28,0,0,1,52.41,387L206.67,298c10.77-6.22,28.4-6.22,39.18,0l99,57.15a8.67,8.67,0,0,1,3.92,8.18h0a12.83,12.83,0,0,1-5.52,8.06L193.84,457.61C181.26,464.87,160.68,464.87,148.11,457.61Z" style="opacity:0.15"></path><path d="M206.83,275.87,55.2,363.41c-4.73,2.73-8.6,9.44-8.6,14.9v5.5c0,5.47,3.87,12.18,8.6,14.91l92.69,53.51c12.59,7.27,33.19,7.27,45.79,0L342,366.58c4.74-2.73,8.61-9.44,8.61-14.9v-5.51c0-5.46-3.87-12.17-8.61-14.9l-95.95-55.4C235.28,269.64,217.62,269.64,206.83,275.87Z" style="fill:#C598CA"></path><path d="M206.83,275.87,55.2,363.41c-4.73,2.73-8.6,9.44-8.6,14.9v5.5c0,5.47,3.87,12.18,8.6,14.91l92.69,53.51c12.59,7.27,33.19,7.27,45.79,0L342,366.58c4.74-2.73,8.61-9.44,8.61-14.9v-5.51c0-5.46-3.87-12.17-8.61-14.9l-95.95-55.4C235.28,269.64,217.62,269.64,206.83,275.87Z" style="fill:#fff;opacity:0.4"></path><path d="M46.7,371.11a12.54,12.54,0,0,1,5.47-7l154.5-89.2c10.77-6.22,28.4-6.22,39.18,0l99.21,57.28a13.7,13.7,0,0,1,5.73,6.84c.65,2.33-.84,5.39-3.35,6.84l-153.6,88.68c-12.58,7.26-33.16,7.26-45.73,0L50.29,378.1C47.79,376.65,46.18,373.53,46.7,371.11Z" style="fill:#C598CA"></path><path d="M46.7,371.11a12.54,12.54,0,0,1,5.47-7l154.5-89.2c10.77-6.22,28.4-6.22,39.18,0l99.21,57.28a13.7,13.7,0,0,1,5.73,6.84c.65,2.33-.84,5.39-3.35,6.84l-153.6,88.68c-12.58,7.26-33.16,7.26-45.73,0L50.29,378.1C47.79,376.65,46.18,373.53,46.7,371.11Z" style="fill:#fff;opacity:0.75"></path><path d="M206.67,274.93,52.74,363.8c-2.81,1.62-2.81,4.27,0,5.89l95.37,55.06c12.57,7.26,33.15,7.26,45.73,0l150.65-87c2.81-1.62,2.81-4.27,0-5.9l-98.64-56.94C235.07,268.71,217.44,268.71,206.67,274.93Z" style="fill:#C598CA"></path><path d="M206.67,274.93,52.74,363.8c-2.81,1.62-2.81,4.27,0,5.89l95.37,55.06c12.57,7.26,33.15,7.26,45.73,0l150.65-87c2.81-1.62,2.81-4.27,0-5.9l-98.64-56.94C235.07,268.71,217.44,268.71,206.67,274.93Z" style="fill:#fff;opacity:0.6000000000000001"></path><path d="M238,412.59a2.45,2.45,0,0,0-1.06,1.92v8c0,.72.48,1,1.06.69a2.43,2.43,0,0,0,1.07-1.93v-8C239,412.56,238.54,412.25,238,412.59Zm6.38-3.71a2.45,2.45,0,0,0-1.06,1.92v8c0,.72.48,1,1.06.69a2.43,2.43,0,0,0,1.07-1.92v-8C245.4,408.85,244.92,408.54,244.33,408.88Zm-38.27,22.25a2.43,2.43,0,0,0-1.07,1.92v8c0,.72.47,1,1.06.69a2.42,2.42,0,0,0,1.06-1.92v-8C207.12,431.1,206.65,430.79,206.06,431.13Zm51-29.67a2.42,2.42,0,0,0-1.06,1.92v8c0,.72.47,1,1.06.69a2.42,2.42,0,0,0,1.06-1.92v-8C258.15,401.43,257.68,401.12,257.09,401.46Zm-6.38,3.71a2.42,2.42,0,0,0-1.06,1.92v8c0,.72.48,1,1.06.69a2.43,2.43,0,0,0,1.07-1.92v-8C251.78,405.14,251.3,404.83,250.71,405.17Zm-31.89,18.54a2.43,2.43,0,0,0-1.07,1.93v8c0,.73.48,1,1.07.69a2.45,2.45,0,0,0,1.06-1.92v-8C219.88,423.68,219.4,423.37,218.82,423.71Zm-6.38,3.71a2.43,2.43,0,0,0-1.07,1.92v8c0,.72.48,1,1.07.69a2.45,2.45,0,0,0,1.06-1.92v-8C213.5,427.39,213,427.08,212.44,427.42ZM225.2,420a2.43,2.43,0,0,0-1.07,1.93v8c0,.73.48,1,1.07.7a2.47,2.47,0,0,0,1.06-1.93v-8C226.26,420,225.78,419.66,225.2,420Zm38.27-22.25a2.42,2.42,0,0,0-1.06,1.93v8c0,.73.47,1,1.06.69a2.42,2.42,0,0,0,1.06-1.92v-8C264.53,397.72,264.06,397.41,263.47,397.75Zm-31.9,18.54a2.47,2.47,0,0,0-1.06,1.93v8c0,.72.48,1,1.06.69a2.43,2.43,0,0,0,1.07-1.93v-8C232.64,416.26,232.16,416,231.57,416.29Zm82.93-48.21a2.45,2.45,0,0,0-1.06,1.93v8c0,.73.48,1,1.06.7a2.45,2.45,0,0,0,1.07-1.93v-8C315.57,368.05,315.09,367.74,314.5,368.08Zm-44.65,26a2.42,2.42,0,0,0-1.06,1.93v8c0,.73.47,1,1.06.7a2.44,2.44,0,0,0,1.06-1.93v-8C270.91,394,270.44,393.7,269.85,394Zm38.27-22.25a2.45,2.45,0,0,0-1.06,1.93v8c0,.73.48,1,1.06.69a2.43,2.43,0,0,0,1.07-1.92v-8C309.19,371.76,308.71,371.45,308.12,371.79Zm12.76-7.42a2.47,2.47,0,0,0-1.06,1.93v8c0,.72.48,1,1.06.69a2.43,2.43,0,0,0,1.07-1.93v-8C322,364.34,321.47,364,320.88,364.37ZM301.75,375.5a2.43,2.43,0,0,0-1.07,1.92v8c0,.72.48,1,1.07.69a2.45,2.45,0,0,0,1.06-1.92v-8C302.81,375.47,302.33,375.16,301.75,375.5Zm-25.52,14.83a2.44,2.44,0,0,0-1.06,1.93v8c0,.72.47,1,1.06.69a2.42,2.42,0,0,0,1.06-1.93v-8C277.29,390.3,276.82,390,276.23,390.33Zm6.38-3.7a2.43,2.43,0,0,0-1.07,1.92v8c0,.72.47,1,1.06.69a2.42,2.42,0,0,0,1.06-1.93v-8C283.67,386.6,283.19,386.29,282.61,386.63Zm12.76-7.42a2.43,2.43,0,0,0-1.07,1.92v8c0,.72.48,1,1.07.69a2.45,2.45,0,0,0,1.06-1.92v-8C296.43,379.18,296,378.87,295.37,379.21ZM289,382.92a2.43,2.43,0,0,0-1.07,1.92v8c0,.72.48,1,1.07.69a2.45,2.45,0,0,0,1.06-1.92v-8C290.05,382.89,289.57,382.58,289,382.92Z" style="fill:#C598CA"></path><path d="M250.71,405.17a2.42,2.42,0,0,0-1.06,1.92v8c0,.72.48,1,1.06.69a2.43,2.43,0,0,0,1.07-1.92v-8C251.78,405.14,251.3,404.83,250.71,405.17ZM238,412.59a2.45,2.45,0,0,0-1.06,1.92v8c0,.72.48,1,1.06.69a2.43,2.43,0,0,0,1.07-1.93v-8C239,412.56,238.54,412.25,238,412.59Zm6.38-3.71a2.45,2.45,0,0,0-1.06,1.92v8c0,.72.48,1,1.06.69a2.43,2.43,0,0,0,1.07-1.92v-8C245.4,408.85,244.92,408.54,244.33,408.88Zm-38.27,22.25a2.43,2.43,0,0,0-1.07,1.92v8c0,.72.47,1,1.06.69a2.42,2.42,0,0,0,1.06-1.92v-8C207.12,431.1,206.65,430.79,206.06,431.13Zm51-29.67a2.42,2.42,0,0,0-1.06,1.92v8c0,.72.47,1,1.06.69a2.42,2.42,0,0,0,1.06-1.92v-8C258.15,401.43,257.68,401.12,257.09,401.46Zm6.38-3.71a2.42,2.42,0,0,0-1.06,1.93v8c0,.73.47,1,1.06.69a2.42,2.42,0,0,0,1.06-1.92v-8C264.53,397.72,264.06,397.41,263.47,397.75Zm-44.65,26a2.43,2.43,0,0,0-1.07,1.93v8c0,.73.48,1,1.07.69a2.45,2.45,0,0,0,1.06-1.92v-8C219.88,423.68,219.4,423.37,218.82,423.71ZM225.2,420a2.43,2.43,0,0,0-1.07,1.93v8c0,.73.48,1,1.07.7a2.47,2.47,0,0,0,1.06-1.93v-8C226.26,420,225.78,419.66,225.2,420Zm6.37-3.71a2.47,2.47,0,0,0-1.06,1.93v8c0,.72.48,1,1.06.69a2.43,2.43,0,0,0,1.07-1.93v-8C232.64,416.26,232.16,416,231.57,416.29Zm-19.13,11.13a2.43,2.43,0,0,0-1.07,1.92v8c0,.72.48,1,1.07.69a2.45,2.45,0,0,0,1.06-1.92v-8C213.5,427.39,213,427.08,212.44,427.42ZM314.5,368.08a2.45,2.45,0,0,0-1.06,1.93v8c0,.73.48,1,1.06.7a2.45,2.45,0,0,0,1.07-1.93v-8C315.57,368.05,315.09,367.74,314.5,368.08Zm-6.38,3.71a2.45,2.45,0,0,0-1.06,1.93v8c0,.73.48,1,1.06.69a2.43,2.43,0,0,0,1.07-1.92v-8C309.19,371.76,308.71,371.45,308.12,371.79Zm12.76-7.42a2.47,2.47,0,0,0-1.06,1.93v8c0,.72.48,1,1.06.69a2.43,2.43,0,0,0,1.07-1.93v-8C322,364.34,321.47,364,320.88,364.37ZM301.75,375.5a2.43,2.43,0,0,0-1.07,1.92v8c0,.72.48,1,1.07.69a2.45,2.45,0,0,0,1.06-1.92v-8C302.81,375.47,302.33,375.16,301.75,375.5ZM269.85,394a2.42,2.42,0,0,0-1.06,1.93v8c0,.73.47,1,1.06.7a2.44,2.44,0,0,0,1.06-1.93v-8C270.91,394,270.44,393.7,269.85,394Zm12.76-7.41a2.43,2.43,0,0,0-1.07,1.92v8c0,.72.47,1,1.06.69a2.42,2.42,0,0,0,1.06-1.93v-8C283.67,386.6,283.19,386.29,282.61,386.63Zm12.76-7.42a2.43,2.43,0,0,0-1.07,1.92v8c0,.72.48,1,1.07.69a2.45,2.45,0,0,0,1.06-1.92v-8C296.43,379.18,296,378.87,295.37,379.21Zm-19.14,11.12a2.44,2.44,0,0,0-1.06,1.93v8c0,.72.47,1,1.06.69a2.42,2.42,0,0,0,1.06-1.93v-8C277.29,390.3,276.82,390,276.23,390.33ZM289,382.92a2.43,2.43,0,0,0-1.07,1.92v8c0,.72.48,1,1.07.69a2.45,2.45,0,0,0,1.06-1.92v-8C290.05,382.89,289.57,382.58,289,382.92Z" style="opacity:0.15"></path><path d="M231.57,416.29a2.47,2.47,0,0,0-1.06,1.93v8a2,2,0,0,0,0,.25l.17-.07a2.47,2.47,0,0,0,1.06-1.93v-8a2,2,0,0,0,0-.26Zm6.38-3.7a2.45,2.45,0,0,0-1.06,1.92v8a2,2,0,0,0,0,.25l.17-.07a2.45,2.45,0,0,0,1.06-1.93v-8a2,2,0,0,0,0-.26A.65.65,0,0,0,238,412.59Zm6.38-3.71a2.45,2.45,0,0,0-1.06,1.92v8a1.81,1.81,0,0,0,0,.25l.17-.07a2.45,2.45,0,0,0,1.06-1.93v-8a2.11,2.11,0,0,0,0-.26A.65.65,0,0,0,244.33,408.88Zm6.38-3.71a2.42,2.42,0,0,0-1.06,1.92v8a1.81,1.81,0,0,0,0,.25l.16-.07a2.43,2.43,0,0,0,1.07-1.92v-8a1.09,1.09,0,0,0,0-.26Zm6.38-3.71a2.42,2.42,0,0,0-1.06,1.92v8a2.11,2.11,0,0,0,0,.26l.16-.08a2.43,2.43,0,0,0,1.07-1.92v-8a1,1,0,0,0,0-.25Zm-44.65,26a2.43,2.43,0,0,0-1.07,1.92v8a1.09,1.09,0,0,0,0,.26l.16-.08a2.42,2.42,0,0,0,1.06-1.92v-8a1.81,1.81,0,0,0,0-.25ZM225.2,420a2.43,2.43,0,0,0-1.07,1.93v8a1,1,0,0,0,0,.26l.16-.08a2.45,2.45,0,0,0,1.06-1.92v-8a2,2,0,0,0,0-.25Zm-19.14,11.13a2.43,2.43,0,0,0-1.07,1.92v8a1,1,0,0,0,0,.25l.16-.07a2.42,2.42,0,0,0,1.06-1.92v-8a1.1,1.1,0,0,0,0-.26Zm12.76-7.42a2.43,2.43,0,0,0-1.07,1.93v8a1.09,1.09,0,0,0,0,.26.79.79,0,0,0,.16-.08,2.42,2.42,0,0,0,1.06-1.92v-8a2,2,0,0,0,0-.25ZM289,382.92a2.43,2.43,0,0,0-1.07,1.92v8a1,1,0,0,0,0,.25l.16-.07a2.42,2.42,0,0,0,1.06-1.93v-8a2.11,2.11,0,0,0,0-.26Zm19.13-11.13a2.45,2.45,0,0,0-1.06,1.93v8a2.11,2.11,0,0,0,0,.26.65.65,0,0,0,.17-.08,2.45,2.45,0,0,0,1.06-1.92v-8a2,2,0,0,0,0-.25Zm-6.37,3.71a2.43,2.43,0,0,0-1.07,1.92v8a1.09,1.09,0,0,0,0,.26l.16-.08a2.45,2.45,0,0,0,1.06-1.92v-8a1.81,1.81,0,0,0,0-.25Zm12.75-7.42a2.45,2.45,0,0,0-1.06,1.93v8a2,2,0,0,0,0,.26l.17-.07a2.48,2.48,0,0,0,1.06-1.93v-8a2,2,0,0,0,0-.25Zm6.55-3.78-.17.07a2.47,2.47,0,0,0-1.06,1.93v8a2,2,0,0,0,0,.25l.17-.07a2.47,2.47,0,0,0,1.06-1.93v-8A2,2,0,0,0,321.05,364.3Zm-38.44,22.33a2.43,2.43,0,0,0-1.07,1.92v8a1,1,0,0,0,0,.25l.16-.07a2.42,2.42,0,0,0,1.06-1.93v-8a2,2,0,0,0,0-.26A.6.6,0,0,0,282.61,386.63Zm12.76-7.42a2.43,2.43,0,0,0-1.07,1.92v8a1,1,0,0,0,0,.25l.16-.07a2.42,2.42,0,0,0,1.06-1.92v-8a2.11,2.11,0,0,0,0-.26ZM269.85,394a2.42,2.42,0,0,0-1.06,1.93v8a2,2,0,0,0,0,.26.6.6,0,0,0,.16-.08,2.42,2.42,0,0,0,1.06-1.92v-8a1,1,0,0,0,0-.25Zm6.38-3.71a2.44,2.44,0,0,0-1.06,1.93v8a1,1,0,0,0,0,.25l.16-.07a2.44,2.44,0,0,0,1.06-1.93v-8a1.06,1.06,0,0,0,0-.26Zm-12.76,7.42a2.42,2.42,0,0,0-1.06,1.93v8a2.11,2.11,0,0,0,0,.26.6.6,0,0,0,.16-.08,2.43,2.43,0,0,0,1.07-1.92v-8a1,1,0,0,0,0-.25Z" style="opacity:0.30000000000000004"></path><path d="M184,406.19l12.2,7.05a10,10,0,0,0,9.06,0l101.51-58.61c2.51-1.45,2.51-3.79,0-5.24l-12.19-7a10.06,10.06,0,0,0-9.07,0L184,401C181.51,402.4,181.51,404.75,184,406.19Z" style="fill:#37474f"></path><path d="M306.78,350.67l-12.19-7a10,10,0,0,0-9.07,0L184,402.24a2,2,0,0,0,0,3.95l12.2,7.05a10,10,0,0,0,9.06,0l101.51-58.61a2,2,0,0,0,0-4Z" style="fill:#455a64"></path><path d="M202.9,406.18c.08-.05.07-.13,0-.18l-3-1.71a.39.39,0,0,0-.33,0c-.08.05-.07.14,0,.19l2.95,1.71A.38.38,0,0,0,202.9,406.18Zm-1.6-2.07c-.12,0-.17.09-.12.16a.31.31,0,0,0,.3.1,4.93,4.93,0,0,1,3,.53c1.21.71,1.35,1.78.29,2.39a4.61,4.61,0,0,1-4.13-.17c-.84-.49-1.19-1.16-.92-1.76,0-.06,0-.14-.16-.17a.26.26,0,0,0-.28.07c-.32.69.09,1.47,1.06,2a5.36,5.36,0,0,0,4.78.2c1.22-.71,1.07-1.94-.34-2.76A5.72,5.72,0,0,0,201.3,404.11Z" style="fill:#fafafa"></path><path d="M219.42,398.57l-1.24-.72a.42.42,0,0,0-.38,0l-1.07.61-.57-.33.91-.52c.08-.05.07-.13,0-.19a.36.36,0,0,0-.32,0l-2.94,1.7-.57-.33,1.06-.62c.1-.06.09-.15,0-.22l-1.25-.72a.42.42,0,0,0-.38,0l-2.43,1.4c-.1.06-.08.16,0,.22l1.24.72a.42.42,0,0,0,.38,0l1.07-.61.57.33-1.92,1.11-1,.59c-.08,0-.07.13,0,.18a.35.35,0,0,0,.33,0l.86-.5.58.33-1.07.61c-.1.06-.08.16,0,.22l1.24.72a.42.42,0,0,0,.38,0l2.43-1.4c.1-.06.09-.15,0-.22l-1.24-.72a.42.42,0,0,0-.38,0l-1.06.61-.57-.33,3.8-2.19.57.32-1.06.62c-.1.06-.09.15,0,.22l1.24.72a.42.42,0,0,0,.38,0l2.43-1.4C219.55,398.73,219.53,398.63,219.42,398.57Z" style="fill:#fafafa"></path><path d="M229.87,389.87l-2.14.25c-.18,0-.22.15-.08.24l.68.39-5.12,2.95-.62-1.07a.15.15,0,0,1,.08-.22l1-.56a2,2,0,0,0,1.59,0c.46-.27.41-.74-.13-1a2,2,0,0,0-1.8-.08c-.41.24-.41.64,0,.94l-1,.56a.33.33,0,0,0-.16.47l.7,1.22-1,.59a2,2,0,0,0-1.61,0c-.46.26-.4.73.13,1a2,2,0,0,0,1.8.07c.41-.23.41-.63,0-.93l2.13-1.23,2.12.41a1.26,1.26,0,0,0,.81-.09l1-.59.51.29a.44.44,0,0,0,.4,0l1.15-.67c.11-.06.09-.16,0-.23l-1.34-.77a.45.45,0,0,0-.39,0l-1.16.66c-.1.06-.09.17,0,.23l.47.28-1,.59a.59.59,0,0,1-.38,0l-1.86-.36,4-2.31.67.39c.15.08.37.06.41,0l.44-1.23C230.23,390,230.05,389.85,229.87,389.87Z" style="fill:#fafafa"></path><path d="M234.06,385.77c-.13,0-.22.06-.2.13a1.58,1.58,0,0,0,.82.94,4,4,0,0,0,1.63.48.43.43,0,0,0,.17,0s.05-.05.05-.09-.1-.14-.23-.15a3.09,3.09,0,0,1-1.32-.38,1.24,1.24,0,0,1-.66-.76C234.3,385.83,234.18,385.77,234.06,385.77Zm1.24-.4c-.46.27-.4.73.13,1a2.1,2.1,0,0,0,1.64.15l1.44.84a.38.38,0,0,0,.33,0c.08-.05.07-.13,0-.19l-1.44-.83c.31-.28.21-.67-.27-.95A2,2,0,0,0,235.3,385.37Zm-1.12,1.76a2.05,2.05,0,0,1-1.08-1.23.26.26,0,0,0-.26-.14c-.12,0-.21.06-.2.13a2.43,2.43,0,0,0,1.24,1.42,6,6,0,0,0,2.45.71.47.47,0,0,0,.17,0,.11.11,0,0,0,.05-.09c0-.07-.1-.14-.23-.14A5,5,0,0,1,234.18,387.13Zm2-2.59c-.13,0-.23,0-.23.11s.11.14.24.15a3.13,3.13,0,0,1,1.32.38,1.28,1.28,0,0,1,.66.76.26.26,0,0,0,.26.14.26.26,0,0,0,.14,0s.07-.06.06-.1a1.58,1.58,0,0,0-.82-.94A3.83,3.83,0,0,0,236.23,384.54Zm0-.71c-.13,0-.23.05-.22.12s.1.14.23.15a4.91,4.91,0,0,1,2.14.62,2.05,2.05,0,0,1,1.08,1.23c0,.08.13.14.26.14a.32.32,0,0,0,.14,0s.06-.06,0-.1a2.38,2.38,0,0,0-1.23-1.42A6,6,0,0,0,236.21,383.83Z" style="fill:#fafafa"></path><path d="M251.09,378.51l-1.22.15c-.38,0-.59.26-.45.49s-.07.46-.45.5l-1.79.21a1,1,0,0,1-.94-.34,1,1,0,0,0-.93-.33l-1.22.14c-.39,0-.59.27-.46.5l.13.22a.31.31,0,0,0,.09.11h0a3,3,0,0,0,2.23.6l4.82-.57c.82-.09,1.35-.5,1.3-1h0a.56.56,0,0,0,0-.12l-.13-.22A1,1,0,0,0,251.09,378.51Z" style="fill:#fafafa"></path><path d="M260.09,371.29l-.65.38-.66-.39a.77.77,0,0,0-.69,0l-1.59.91c-.18.11-.16.29.05.4l.66.39-.65.37c-.18.1-.16.28.05.4l2.48,1.44a.82.82,0,0,0,.7,0l3.53-2.05c.18-.1.15-.28-.05-.4l-2.49-1.43A.77.77,0,0,0,260.09,371.29Zm-.2,3.32c.05,0,.05.07,0,.09l-.23.13a.16.16,0,0,1-.15,0l-1.42-.82s-.05-.06,0-.09l.22-.13a.16.16,0,0,1,.15,0Zm.7-.4s.05.07,0,.09l-.22.13a.22.22,0,0,1-.16,0l-1.41-.82c-.05,0-.05-.07,0-.09l.22-.13a.18.18,0,0,1,.16,0Zm.7-.4s0,.07,0,.09l-.22.13a.18.18,0,0,1-.16,0l-1.41-.81c-.05,0-.05-.07,0-.09l.22-.13a.22.22,0,0,1,.16,0Zm.7-.4a0,0,0,0,1,0,.09l-.23.13a.16.16,0,0,1-.15,0l-1.41-.82s0-.06,0-.08l.22-.13a.16.16,0,0,1,.15,0Zm.69-.4c.05,0,.05.06,0,.09l-.22.12a.18.18,0,0,1-.16,0l-1.41-.82a0,0,0,0,1,0-.09l.23-.12a.14.14,0,0,1,.15,0Z" style="fill:#fafafa"></path><path d="M283.2,357.86l-1.89,1.1-.4-1a.28.28,0,0,0-.27-.12c-.13,0-.2.07-.17.15l.39,1-1.68-.22c-.12,0-.24,0-.25.09s.09.15.21.16l1.69.23-1.89,1.09c-.09.05-.08.14,0,.19l3.31,1.91a.35.35,0,0,0,.33,0l4.26-2.46c.08-.05.07-.13,0-.19l-3.32-1.91A.36.36,0,0,0,283.2,357.86Zm3.16,2-4,2.29-3-1.71,4-2.29Z" style="fill:#fafafa"></path><path d="M296.56,352.4c-.09.05-.08.13,0,.19l.91.53-4,2.28-.91-.53a.38.38,0,0,0-.33,0c-.08.05-.07.13,0,.19l1.08.63a.38.38,0,0,0,.33,0l4.26-2.46c.08-.05.07-.13,0-.19l-1.09-.63A.36.36,0,0,0,296.56,352.4Zm-1.9,1.49a.38.38,0,0,0,.16,0,.08.08,0,0,0,.05-.09l-.11-.95c0-.08-.12-.14-.25-.14s-.22.05-.21.12l.08.63-2.62-1.51a.36.36,0,0,0-.32,0c-.08,0-.07.13,0,.18l2.61,1.51-1.09,0c-.12,0-.22.05-.21.12s.12.14.25.14Z" style="fill:#fafafa"></path><path d="M272.08,365.11a4.07,4.07,0,0,0-.86-.32,3.35,3.35,0,0,0-.88-.1,4.14,4.14,0,0,0-.86.12,3.65,3.65,0,0,0-.82.34,1.72,1.72,0,0,0-.49.42.89.89,0,0,0-.19.49,1,1,0,0,0,.16.52,1.76,1.76,0,0,0,.54.5l.18.11.26.16.27.15.2.11a4.2,4.2,0,0,0,.88.31,3.88,3.88,0,0,0,.89.08,3.22,3.22,0,0,0,.84-.11,2.57,2.57,0,0,0,.72-.28,3,3,0,0,0,.44-.31,1.65,1.65,0,0,0,.26-.29.83.83,0,0,0,.12-.53s0-.05-.05-.07a.23.23,0,0,0-.14,0,.23.23,0,0,0-.13,0l-.21.12-.06.06a.45.45,0,0,1,0,.08,1,1,0,0,1,0,.17.51.51,0,0,1-.11.16,1.52,1.52,0,0,1-.18.17l-.31.2a2.56,2.56,0,0,1-.53.22,3,3,0,0,1-1.3,0,3.15,3.15,0,0,1-.69-.24l-.21-.1-.25-.14-.23-.14-.18-.12a1.62,1.62,0,0,1-.42-.4.67.67,0,0,1-.11-.39.64.64,0,0,1,.15-.36,1.27,1.27,0,0,1,.37-.31,2.7,2.7,0,0,1,1.27-.37,2.91,2.91,0,0,1,1.35.33,4,4,0,0,1,.42.22l.24.15.11.08a.36.36,0,0,1,.07.1.12.12,0,0,1,0,.1.19.19,0,0,1-.1.1.53.53,0,0,1-.31.06.78.78,0,0,1-.34-.12l-1.14-.65a.23.23,0,0,0-.14,0,.25.25,0,0,0-.13,0l-.15.08a.07.07,0,0,0,0,.08s0,.05.06.08l.05,0H270a.86.86,0,0,0-.38.13.55.55,0,0,0-.24.24.32.32,0,0,0,0,.27.85.85,0,0,0,.21.28,1.61,1.61,0,0,0,.38.27,2.77,2.77,0,0,0,.46.22,2.33,2.33,0,0,0,.49.12,1.85,1.85,0,0,0,.47,0,1.23,1.23,0,0,0,.42-.14,1.14,1.14,0,0,0,.22-.16.31.31,0,0,0,.09-.13.17.17,0,0,0,0-.12l0-.11a1.2,1.2,0,0,0,.37,0,1.12,1.12,0,0,0,.42-.15.74.74,0,0,0,.21-.17.32.32,0,0,0,.07-.2.4.4,0,0,0-.09-.23,1,1,0,0,0-.28-.24l-.11-.06-.16-.1-.21-.12Zm-.52,1.37c.07.1,0,.2-.15.29a.52.52,0,0,1-.25.07,1,1,0,0,1-.56-.1,1,1,0,0,1-.25-.12,1.1,1.1,0,0,1-.21-.14.73.73,0,0,1-.15-.16.26.26,0,0,1,0-.17.22.22,0,0,1,.13-.14.63.63,0,0,1,.25-.09h.26a1.31,1.31,0,0,1,.28.09,1.53,1.53,0,0,1,.29.14A1.14,1.14,0,0,1,271.56,366.48Z" style="fill:#fafafa"></path><path d="M196.34,400.75c.9.53,1,1.32.22,1.77a3.39,3.39,0,0,1-3.06-.13c-.91-.52-1-1.31-.22-1.76A3.39,3.39,0,0,1,196.34,400.75Z" style="fill:#C598CA"></path><path d="M207.75,394.17c.9.52,1,1.31.22,1.76a3.39,3.39,0,0,1-3.06-.12c-.91-.53-1-1.32-.22-1.77A3.39,3.39,0,0,1,207.75,394.17Z" style="fill:#C598CA"></path><path d="M219.15,387.58c.91.52,1,1.31.22,1.77a3.42,3.42,0,0,1-3.06-.13c-.9-.52-1-1.31-.22-1.77A3.42,3.42,0,0,1,219.15,387.58Z" style="fill:#263238"></path><path d="M230.56,381c.91.53,1,1.32.22,1.77a3.39,3.39,0,0,1-3.06-.13c-.9-.52-1-1.31-.22-1.76A3.39,3.39,0,0,1,230.56,381Z" style="fill:#C598CA"></path><path d="M242,374.41c.91.52,1,1.31.22,1.76a3.39,3.39,0,0,1-3.06-.12c-.9-.53-1-1.32-.22-1.77A3.39,3.39,0,0,1,242,374.41Z" style="fill:#263238"></path><path d="M253.38,367.82c.91.52,1,1.31.22,1.77a3.42,3.42,0,0,1-3.06-.13c-.9-.52-1-1.32-.22-1.77A3.42,3.42,0,0,1,253.38,367.82Z" style="fill:#C598CA"></path><path d="M264.79,361.23c.91.52,1,1.32.22,1.77a3.42,3.42,0,0,1-3.06-.13c-.9-.52-1-1.31-.22-1.77A3.42,3.42,0,0,1,264.79,361.23Z" style="fill:#C598CA"></path><path d="M276.2,354.64c.91.53,1,1.32.22,1.77a3.39,3.39,0,0,1-3.06-.13c-.9-.52-1-1.31-.22-1.76A3.39,3.39,0,0,1,276.2,354.64Z" style="fill:#263238"></path><path d="M287.61,348.06c.91.52,1,1.31.22,1.76a3.39,3.39,0,0,1-3.06-.12c-.91-.53-1-1.32-.22-1.77A3.39,3.39,0,0,1,287.61,348.06Z" style="fill:#263238"></path></g></g><g id="freepik--wifi-icon--inject-332"><g id="freepik--WiFi--inject-332"><path d="M144.11,188.35c-2.65-1.89-6.15-2.13-10.14-.31-9.84,4.49-18.94,19.76-20.32,34.11-.82,8.54,1.28,14.81,5.18,17.56,1.71,1.19,8.37,5.94,10.13,7.16,2.64,1.85,6.12,2.08,10.08.27,9.84-4.48,18.94-19.76,20.32-34.11.82-8.47-1.25-14.72-5.1-17.49C152.55,194.3,145.84,189.57,144.11,188.35Z" style="fill:#C598CA"></path><path d="M144.11,188.35c-2.65-1.89-6.15-2.13-10.14-.31-9.84,4.49-18.94,19.76-20.32,34.11-.82,8.54,1.28,14.81,5.18,17.56,1.71,1.19,8.37,5.94,10.13,7.16,2.64,1.85,6.12,2.08,10.08.27,9.84-4.48,18.94-19.76,20.32-34.11.82-8.47-1.25-14.72-5.1-17.49C152.55,194.3,145.84,189.57,144.11,188.35Z" style="opacity:0.30000000000000004"></path><path d="M160.44,138.75c-8.35-5.87-19.31-6.61-31.82-.91-21.4,9.76-38.11,31.79-50,61.79-2.41,6.09-2.06,12.15.78,14.33l0,0c3.35,2.57,9.13,6.28,12,8.47l0,0c3.58,2.76,9.7-1.65,12.71-9.33,8.34-21.25,19.09-35.63,34.14-42.49,5.79-2.64,11.1-3.31,15.74-2.29a32.22,32.22,0,0,1,4.08,8.54,5.29,5.29,0,0,0,1.91,2.88l12,8.53c2.58,1.8,6.71,0,10.09-4.86l0-.06c3.53-5.09,5.11-12,3.7-16.34-2.85-8.81-7.39-15.51-13.23-19.69C170.61,145.9,162.47,140.17,160.44,138.75Z" style="fill:#C598CA"></path><path d="M160.44,138.75c-8.35-5.87-19.31-6.61-31.82-.91-21.4,9.76-38.11,31.79-50,61.79-2.41,6.09-2.06,12.15.78,14.33l0,0c3.35,2.57,9.13,6.28,12,8.47l0,0c3.58,2.76,9.7-1.65,12.71-9.33,8.34-21.25,19.09-35.63,34.14-42.49,5.79-2.64,11.1-3.31,15.74-2.29a32.22,32.22,0,0,1,4.08,8.54,5.29,5.29,0,0,0,1.91,2.88l12,8.53c2.58,1.8,6.71,0,10.09-4.86l0-.06c3.53-5.09,5.11-12,3.7-16.34-2.85-8.81-7.39-15.51-13.23-19.69C170.61,145.9,162.47,140.17,160.44,138.75Z" style="opacity:0.30000000000000004"></path><path d="M202.52,123c-4.54-10.71-10.84-18.44-18.61-24-2.06-1.47-10.85-7.36-12.95-8.65-13.41-8.24-39.43-11.7-59.17-1.77-32.33,16.26-54.27,39-70.06,82.69C37.87,182,40.9,187.36,44,189.75l.06,0c3.47,2.71,8.89,6.06,12,8.45l.06,0c3.46,2.71,9.23-1.38,12.48-8.71,15.86-35.84,35.64-56.73,61.65-68.58,13.42-6.12,25.5-6.54,35.46-2.24a51.12,51.12,0,0,1,9.69,15.3,5.3,5.3,0,0,0,1.81,2.37c1.75,1.22,11.25,8,12,8.48,2.6,1.85,6.69.15,10.08-4.75C203,134.65,204.34,127.28,202.52,123Z" style="fill:#C598CA"></path><path d="M202.52,123c-4.54-10.71-10.84-18.44-18.61-24-2.06-1.47-10.85-7.36-12.95-8.65-13.41-8.24-39.43-11.7-59.17-1.77-32.33,16.26-54.27,39-70.06,82.69C37.87,182,40.9,187.36,44,189.75l.06,0c3.47,2.71,8.89,6.06,12,8.45l.06,0c3.46,2.71,9.23-1.38,12.48-8.71,15.86-35.84,35.64-56.73,61.65-68.58,13.42-6.12,25.5-6.54,35.46-2.24a51.12,51.12,0,0,1,9.69,15.3,5.3,5.3,0,0,0,1.81,2.37c1.75,1.22,11.25,8,12,8.48,2.6,1.85,6.69.15,10.08-4.75C203,134.65,204.34,127.28,202.52,123Z" style="opacity:0.30000000000000004"></path><path d="M159.36,213C158,227.38,148.88,242.66,139,247.14s-16.7-3.51-15.32-17.87S134.2,199.65,144,195.16,160.74,198.68,159.36,213Z" style="fill:#C598CA"></path><path d="M140.63,146.33c-29.24,11.34-42.53,32.28-51.73,60.74-2,6.22-2.23,12,2.51,15.38l0,0c5.65,3.45,9.7-1.65,12.71-9.33,8.34-21.25,19.09-35.63,34.14-42.49s27-.49,31.82,14.74c1.75,5.54,7.56,4.53,12-1.94l0-.06c3.53-5.09,5.11-12,3.7-16.34C179,145.61,162.56,137.82,140.63,146.33Z" style="fill:#C598CA"></path><path d="M132.49,96.67c-26.3,8.16-58,30.51-78,81.94-2.57,6.58-4.65,15.3,1.5,19.63l.06,0c4.4,2.7,9.23-1.38,12.48-8.71,15.86-35.84,35.64-56.73,61.65-68.58s47-2.44,57.16,21.55c2.06,4.9,7.54,3.87,11.86-2.39h0c3.81-5.5,5.17-12.87,3.35-17.18C190.12,93.69,166,86.28,132.49,96.67Z" style="fill:#C598CA"></path></g></g><g id="freepik--www--inject-332"><g id="freepik--Box--inject-332"><g id="freepik--box--inject-332"><path d="M430.68,401l-117.32,67.6a4,4,0,0,1-3.65,0L274,447.94a4,4,0,0,1-1.8-3.15l0-4a4.1,4.1,0,0,1,1.84-3.16L391.45,370a4,4,0,0,1,3.64,0l35.66,20.65a4,4,0,0,1,1.8,3.16l0,4A4.05,4.05,0,0,1,430.68,401Z" style="fill:#C598CA"></path><path d="M274,437.63a4.23,4.23,0,0,0-1.85,3.16l0,4a4,4,0,0,0,1.8,3.15l35.74,20.65a3.73,3.73,0,0,0,1.9.43v-8.2a3.67,3.67,0,0,1-1.83-.43l-35.73-20.65A1.12,1.12,0,0,1,274,437.63Z" style="opacity:0.30000000000000004"></path><path d="M431,390.87c.72.58.63,1.39-.28,1.92L313.43,460.38a3.74,3.74,0,0,1-1.82.44V469a3.55,3.55,0,0,0,1.75-.44L430.68,401a4.09,4.09,0,0,0,1.85-3.16l0-4A4.07,4.07,0,0,0,431,390.87Z" style="opacity:0.2"></path><path d="M430.75,392.79l-117.32,67.6a4,4,0,0,1-3.65,0l-18.36-10.62-17.38-10a1.12,1.12,0,0,1,0-2.11L391.45,370a4,4,0,0,1,3.64,0l35.66,20.65A1.11,1.11,0,0,1,430.75,392.79Z" style="fill:#C598CA"></path></g><path d="M319.31,437.4l-6-6.62a1.37,1.37,0,0,1-.23-.43c-.05-.16.07-.32.35-.48l2.32-1.34a1.61,1.61,0,0,1,.82-.2,1.64,1.64,0,0,1,.83.2.54.54,0,0,1,.18.14l9.46,10.78a1.1,1.1,0,0,1,.24.45c0,.17-.08.33-.36.5l-2.32,1.34a1.41,1.41,0,0,1-.84.2,6.85,6.85,0,0,1-.81-.13l-11.1-3,5.18,6.41a2,2,0,0,1,.23.47c.05.16-.07.32-.35.48l-2.32,1.34a1.35,1.35,0,0,1-.85.21,3.92,3.92,0,0,1-.8-.14l-18.67-5.46a.82.82,0,0,1-.24-.1.57.57,0,0,1-.34-.48.56.56,0,0,1,.34-.47l2.32-1.34a1.31,1.31,0,0,1,.84-.2,4.92,4.92,0,0,1,.74.13l11.47,3.45-5.79-6.73a.63.63,0,0,1-.2-.45c0-.18.1-.33.32-.46l2.32-1.34a1.57,1.57,0,0,1,.81-.19,2.65,2.65,0,0,1,.77.12Z" style="fill:#fafafa"></path><path d="M344.63,422.79l-6-6.63a1.37,1.37,0,0,1-.23-.43c-.05-.16.07-.32.35-.48l2.32-1.34a1.61,1.61,0,0,1,.82-.19,1.64,1.64,0,0,1,.83.19.7.7,0,0,1,.18.14l9.46,10.78a1.07,1.07,0,0,1,.24.46c0,.16-.08.33-.37.49l-2.31,1.34a1.41,1.41,0,0,1-.84.2,6.85,6.85,0,0,1-.81-.13l-11.1-3,5.18,6.41a2,2,0,0,1,.23.47c0,.16-.07.32-.35.49l-2.32,1.34a1.49,1.49,0,0,1-.85.21,4.75,4.75,0,0,1-.8-.14l-18.67-5.46a1.28,1.28,0,0,1-.24-.11.5.5,0,0,1,0-.95l2.32-1.34a1.38,1.38,0,0,1,.84-.2,4.92,4.92,0,0,1,.74.13l11.47,3.45L329,421.76a.63.63,0,0,1-.2-.44.52.52,0,0,1,.32-.47l2.32-1.34a1.57,1.57,0,0,1,.81-.19,2.65,2.65,0,0,1,.77.12Z" style="fill:#fafafa"></path><path d="M370,408.17l-6-6.62a1.42,1.42,0,0,1-.23-.44c-.05-.15.07-.32.35-.48l2.32-1.34a1.61,1.61,0,0,1,.82-.19,1.64,1.64,0,0,1,.83.19,1,1,0,0,1,.18.14l9.45,10.78a1,1,0,0,1,.25.46c0,.16-.08.33-.37.49l-2.31,1.34a1.41,1.41,0,0,1-.84.2,6.85,6.85,0,0,1-.81-.13l-11.11-3,5.19,6.41a2,2,0,0,1,.23.46c.05.16-.07.32-.35.49l-2.32,1.34a1.52,1.52,0,0,1-.86.21,4,4,0,0,1-.79-.14l-18.67-5.46a1.28,1.28,0,0,1-.24-.11.5.5,0,0,1,0-.95l2.32-1.34a1.38,1.38,0,0,1,.84-.2,4.92,4.92,0,0,1,.74.13l11.47,3.45-5.79-6.72a.67.67,0,0,1-.2-.45.53.53,0,0,1,.32-.47l2.32-1.34a1.47,1.47,0,0,1,.81-.18,2.37,2.37,0,0,1,.77.11Z" style="fill:#fafafa"></path><polygon points="396.77 403.48 392.79 405.78 368.06 391.45 372.04 389.16 396.77 403.48" style="fill:#fafafa"></polygon></g></g><g id="freepik--Cursor--inject-332"><g id="freepik--Arrow--inject-332"><path d="M462.11,380.15l-65.59,5.13a2.72,2.72,0,0,0-2.46,2.66v4.33a4.32,4.32,0,0,0,2.21,3.55L438,416.33A1.65,1.65,0,0,0,440.5,415l.85-6.71a2.4,2.4,0,0,1,2.74-2.08l20.05,2.95a5,5,0,0,0,4.05-1.5l3-3.52a7.64,7.64,0,0,0,1.61-4.32v-4.34a2.94,2.94,0,0,0-2.44-2.82L461,391.24l1.8-1a4.31,4.31,0,0,0,1.8-3.47v-4.33A2.25,2.25,0,0,0,462.11,380.15Z" style="fill:#C598CA"></path><path d="M462.11,380.15l-65.59,5.13a2.72,2.72,0,0,0-2.46,2.66v4.33a4.32,4.32,0,0,0,2.21,3.55L438,416.33A1.65,1.65,0,0,0,440.5,415l.85-6.71a2.4,2.4,0,0,1,2.74-2.08l20.05,2.95a5,5,0,0,0,4.05-1.5l3-3.52a7.64,7.64,0,0,0,1.61-4.32v-4.34a2.94,2.94,0,0,0-2.44-2.82L461,391.24l1.8-1a4.31,4.31,0,0,0,1.8-3.47v-4.33A2.25,2.25,0,0,0,462.11,380.15Z" style="fill:#fff;opacity:0.25"></path><path d="M466.1,399.65v9.24a4.38,4.38,0,0,1-2,.24l-20-2.95a2.38,2.38,0,0,0-1.43.27v-9.31a2.39,2.39,0,0,1,1.43-.22l20,2.95A4.35,4.35,0,0,0,466.1,399.65Z" style="fill:#fff;opacity:0.2"></path><path d="M439.22,407.26v9.26a1.94,1.94,0,0,1-1.24-.19l-41.71-20.51a4.32,4.32,0,0,1-2.21-3.55v-4.33a2.75,2.75,0,0,1,1.49-2.4c-.3.26-.06.64.72,1L438,407.07A1.94,1.94,0,0,0,439.22,407.26Z" style="fill:#fff;opacity:0.2"></path><path d="M462.11,380.15l-65.59,5.13c-1.36.11-1.47.68-.25,1.28L438,407.07a1.65,1.65,0,0,0,2.52-1.36l.85-6.71a2.4,2.4,0,0,1,2.74-2.08l20.05,2.95a5,5,0,0,0,4.05-1.5l3-3.52c.89-1,.52-2-.83-2.22l-20-2.95c-1.35-.2-1.48-.9-.29-1.57l12.35-6.94C463.61,380.5,463.47,380.05,462.11,380.15Z" style="fill:#fff;opacity:0.45"></path></g></g><g id="freepik--speech-bubble--inject-332"><g id="freepik--speech-bubble--inject-332"><path d="M253.37,135.84a5.23,5.23,0,0,1,.29-.58h0A5.33,5.33,0,0,0,253.37,135.84Z" style="fill:#ebebeb"></path><path d="M438.64,29.65a1.27,1.27,0,0,0-1.23-1,2.15,2.15,0,0,0-1.08.34l-181,104.46a5.12,5.12,0,0,0-1.71,1.8l-13.4-7.66a5.09,5.09,0,0,1,1.64-1.71l181-104.46a5.34,5.34,0,0,1,4.83,0l8.62,4.83A5.2,5.2,0,0,1,438.64,29.65Z" style="fill:#37474f;opacity:0.5"></path><g style="opacity:0.9"><path d="M255.38,298a5.52,5.52,0,0,1-4.84,0l-8.62-5a5.23,5.23,0,0,1-2.43-4.14V130.07a5,5,0,0,1,.77-2.46l13.42,7.66a4.72,4.72,0,0,0-.71,2.37V296.57C253,298,254,298.79,255.38,298Z" style="fill:#263238"></path><path d="M265.21,313.4c-.89-.49-8.49-4.9-9.15-5.26a1.38,1.38,0,0,1-.69-1.22V298l9.21-5.31v19.57A1.34,1.34,0,0,0,265.21,313.4Z" style="fill:#263238"></path></g><g style="opacity:0.85"><path d="M437.41,28.67a2.2,2.2,0,0,0-1.08.32L255.38,133.46a5.34,5.34,0,0,0-2.41,4.18V296.57c0,1.09.54,1.72,1.33,1.72a2.15,2.15,0,0,0,1.08-.33l181-104.47a5.3,5.3,0,0,0,2.41-4.17V30.38c0-1.09-.55-1.71-1.33-1.71Z" style="fill:#37474f"></path><path d="M264.57,287.34v24.89a1.41,1.41,0,0,0,2.72.53l20.28-38.69Z" style="fill:#37474f"></path></g></g></g><g id="freepik--Text--inject-332"><g id="freepik--text--inject-332"><polygon points="425.34 69.15 388.79 90.26 388.79 94.95 425.34 73.84 425.34 69.15" style="fill:#263238"></polygon><polygon points="303.48 139.51 266.92 160.62 266.92 165.31 303.48 144.2 303.48 139.51" style="fill:#263238"></polygon><polygon points="425.34 168.22 372.54 198.71 372.54 203.4 425.34 172.91 425.34 168.22" style="fill:#263238"></polygon><polygon points="319.73 229.2 266.93 259.69 266.93 264.38 319.73 233.89 319.73 229.2" style="fill:#263238"></polygon><path d="M338.58,220.29c0,1.05,0,2,0,2.76s0,1.73,0,2.79a19.29,19.29,0,0,1-.5,4.28,17.82,17.82,0,0,1-1.32,3.77,14.32,14.32,0,0,1-2,3,10.58,10.58,0,0,1-2.58,2.14l-5.36,3.09a.33.33,0,0,1-.44,0,.75.75,0,0,1-.18-.56v-22.7a1.84,1.84,0,0,1,.18-.77,1.2,1.2,0,0,1,.44-.53l5.22-3a5.83,5.83,0,0,1,2.62-.86,3,3,0,0,1,2.06.69,4.82,4.82,0,0,1,1.36,2.22A12.11,12.11,0,0,1,338.58,220.29Zm-2.17,1.43a10.68,10.68,0,0,0-.26-2.29,3.83,3.83,0,0,0-.76-1.65,1.91,1.91,0,0,0-1.37-.67,3.81,3.81,0,0,0-2.08.66l-3.58,2.06V238.1l3.7-2.13a7.3,7.3,0,0,0,2.06-1.74,8.88,8.88,0,0,0,1.34-2.23,11.77,11.77,0,0,0,.72-2.5,17.53,17.53,0,0,0,.23-2.58c0-.52,0-1,0-1.4s0-.81,0-1.2,0-.78,0-1.19S336.41,222.26,336.41,221.72Z" style="fill:#e6e6e6"></path><path d="M351.34,222.45,343.42,227l-1.19,5.36a3.45,3.45,0,0,1-.25.72,1.47,1.47,0,0,1-.64.67l-.84.49a.26.26,0,0,1-.35,0,.61.61,0,0,1-.15-.46,2.66,2.66,0,0,1,.09-.54l5.59-25.4a7.1,7.1,0,0,1,.34-1,1.64,1.64,0,0,1,.69-.78l1.36-.79c.31-.18.54-.18.69,0a1.62,1.62,0,0,1,.34.58l5.57,18.95a1.43,1.43,0,0,1,.09.44,1.45,1.45,0,0,1-.15.63.92.92,0,0,1-.35.43l-.85.49c-.3.18-.51.2-.63.07a1,1,0,0,1-.26-.43Zm-7.12,1,6.32-3.65L347.39,209Z" style="fill:#e6e6e6"></path><path d="M361.9,221a1.77,1.77,0,0,1-.18.77,1.13,1.13,0,0,1-.43.53l-.94.55a.33.33,0,0,1-.43,0,.74.74,0,0,1-.18-.56V214l-5.46-11a1.14,1.14,0,0,1-.11-.42,1.42,1.42,0,0,1,.15-.63,1,1,0,0,1,.35-.44l1-.56c.31-.18.52-.21.65-.1a1.21,1.21,0,0,1,.31.42l4.2,8.75L365,196.38a6,6,0,0,1,.31-.78A1.51,1.51,0,0,1,366,195l1-.57a.26.26,0,0,1,.35,0,.58.58,0,0,1,.15.45,2.41,2.41,0,0,1-.11.56l-5.46,17.31Z" style="fill:#e6e6e6"></path><path d="M317.47,125.79a2.29,2.29,0,0,1,.2.51l2.51,12.47L322.51,118a2.23,2.23,0,0,1,.27-.89,1.22,1.22,0,0,1,.44-.46l.91-.53a.27.27,0,0,1,.35,0,.62.62,0,0,1,.15.46c0,.07,0,.17,0,.3l-2.81,23.33a6.55,6.55,0,0,1-.34,1.55,1.72,1.72,0,0,1-.78.92l-.91.53q-.52.3-.78-.06a3,3,0,0,1-.38-1.1l-2.1-10.52-2.1,13A7.35,7.35,0,0,1,314,146a1.84,1.84,0,0,1-.78,1l-.91.52c-.36.21-.62.21-.77,0a2.89,2.89,0,0,1-.35-1.16l-2.8-20.09a1.57,1.57,0,0,1,0-.27,1.45,1.45,0,0,1,.15-.63.93.93,0,0,1,.36-.43l.91-.53a.48.48,0,0,1,.43,0c.14.07.23.26.28.58L312.83,143l2.51-15.36a5,5,0,0,1,.21-.75,1.25,1.25,0,0,1,.57-.72l.78-.45Q317.31,125.49,317.47,125.79Z" style="fill:#e6e6e6"></path><path d="M326.8,123.74a20,20,0,0,1,.44-4,17.83,17.83,0,0,1,1.22-3.72,14.81,14.81,0,0,1,2-3.17,9.55,9.55,0,0,1,2.67-2.3,4.72,4.72,0,0,1,2.67-.78,2.9,2.9,0,0,1,2,.9A5.36,5.36,0,0,1,339,113a13.49,13.49,0,0,1,.45,3.45c0,2,0,4.14,0,6.25a22.51,22.51,0,0,1-.47,4,18.83,18.83,0,0,1-1.22,3.74,14.37,14.37,0,0,1-2,3.16,9.57,9.57,0,0,1-2.65,2.28,4.84,4.84,0,0,1-2.66.79,2.8,2.8,0,0,1-1.95-.91,5.36,5.36,0,0,1-1.22-2.33,13.49,13.49,0,0,1-.47-3.44Q326.73,126.9,326.8,123.74Zm10.43-5.85a10.5,10.5,0,0,0-.36-2.67,3.3,3.3,0,0,0-.85-1.55,1.8,1.8,0,0,0-1.29-.46,3.46,3.46,0,0,0-1.63.53,6.7,6.7,0,0,0-1.63,1.35,8.12,8.12,0,0,0-1.29,2,11.22,11.22,0,0,0-.87,2.53,14.82,14.82,0,0,0-.34,3.08c0,1.07-.05,2.07-.05,3s0,1.89.05,2.93a9.78,9.78,0,0,0,.34,2.68,3.23,3.23,0,0,0,.87,1.53,1.74,1.74,0,0,0,1.29.47,3.44,3.44,0,0,0,1.63-.54,6.8,6.8,0,0,0,1.63-1.34,9,9,0,0,0,1.29-2,11.22,11.22,0,0,0,.85-2.53,16.16,16.16,0,0,0,.36-3.08c0-1.08,0-2.07,0-3S337.26,118.93,337.23,117.89Z" style="fill:#e6e6e6"></path><path d="M348.86,101.83A6.13,6.13,0,0,1,351,101a2.6,2.6,0,0,1,1.74.29,3.08,3.08,0,0,1,1.2,1.56,8.38,8.38,0,0,1,.44,3.05,13,13,0,0,1-.92,5.06,12.37,12.37,0,0,1-2.36,3.75l3.44,7.25a.87.87,0,0,1,.07.35,1.45,1.45,0,0,1-.15.63.87.87,0,0,1-.35.43l-1,.57c-.31.18-.53.19-.67,0a1.5,1.5,0,0,1-.31-.42l-3.31-7-3.93,2.27v9a1.84,1.84,0,0,1-.18.77,1.13,1.13,0,0,1-.43.53l-.94.54a.32.32,0,0,1-.43,0,.75.75,0,0,1-.18-.56v-22.7a1.8,1.8,0,0,1,.18-.77,1.13,1.13,0,0,1,.43-.53Zm-4,13.81,3.86-2.22a6.85,6.85,0,0,0,2.54-2.47,7.21,7.21,0,0,0,.91-3.77c0-1.5-.3-2.39-.91-2.66a2.91,2.91,0,0,0-2.54.54l-3.86,2.22Z" style="fill:#e6e6e6"></path><path d="M367.48,112.51a.33.33,0,0,1,.44,0,.75.75,0,0,1,.18.56v1.27a1.8,1.8,0,0,1-.18.77,1.14,1.14,0,0,1-.44.53L358.2,121a.33.33,0,0,1-.44,0,.74.74,0,0,1-.18-.56V97.75a1.85,1.85,0,0,1,.18-.78,1.2,1.2,0,0,1,.44-.53l.93-.54a.33.33,0,0,1,.44,0,.77.77,0,0,1,.18.56V117Z" style="fill:#e6e6e6"></path><path d="M382.89,91.71c0,1,0,2,0,2.76s0,1.72,0,2.79a20,20,0,0,1-.51,4.28,17.73,17.73,0,0,1-1.32,3.76,13.37,13.37,0,0,1-2,3,10,10,0,0,1-2.58,2.14l-5.36,3.1a.34.34,0,0,1-.43,0,.78.78,0,0,1-.18-.57V90.29a1.77,1.77,0,0,1,.18-.77,1.16,1.16,0,0,1,.43-.54l5.23-3a5.64,5.64,0,0,1,2.61-.86,2.92,2.92,0,0,1,2.07.69A4.71,4.71,0,0,1,382.37,88,12.36,12.36,0,0,1,382.89,91.71Zm-2.17,1.42a11.53,11.53,0,0,0-.26-2.29,3.74,3.74,0,0,0-.77-1.64,1.89,1.89,0,0,0-1.37-.67,3.85,3.85,0,0,0-2.07.65l-3.59,2.07v18.27l3.7-2.14a7.46,7.46,0,0,0,2.07-1.73,9.21,9.21,0,0,0,1.33-2.23,11.85,11.85,0,0,0,.72-2.51,18.75,18.75,0,0,0,.24-2.58c0-.51,0-1,0-1.39s0-.82,0-1.2,0-.78,0-1.19S380.72,93.67,380.72,93.13Z" style="fill:#e6e6e6"></path><path d="M270.53,237.22V183.48l6.28-3.63v53.74Z" style="fill:#C598CA"></path><path d="M300.36,166.25V220l-4.65,2.69-6.29-23.89v27.52l-5.81,3.36V175.93l4.65-2.69,6.28,23.89V169.61Z" style="fill:#C598CA"></path><path d="M309.34,170.74l-5.12,3V164l16.53-9.54v9.68l-5.12,3v44.07l-6.29,3.63Z" style="fill:#C598CA"></path><path d="M339,153.6l-8.15,4.7v10.75l6.89-4v9.67l-6.89,4v14L339,188v9.67L324.61,206V152.25L339,143.92Z" style="fill:#C598CA"></path><path d="M361.7,152.69a26,26,0,0,1-2.37,11.05c1.53.76,2.37,2.71,2.37,5.79v15.05l-6.28,3.63V173.16c0-2.15-.84-3.1-2.33-2.24l-2.32,1.34v18.63l-6.29,3.63V140.78l8.61-5c5.26-3,8.61.33,8.61,8.28Zm-6.28-5c0-2.15-.84-3.1-2.33-2.24l-2.32,1.35v15.76l2.32-1.34a5.55,5.55,0,0,0,2.33-4.93Z" style="fill:#C598CA"></path><path d="M384.7,117.56V171.3L380,174l-6.28-23.89v27.52L367.94,181V127.24l4.65-2.69,6.29,23.89V120.92Z" style="fill:#C598CA"></path><path d="M405.92,115l-8.15,4.71v10.74l6.89-4v9.67l-6.89,4v14l8.15-4.7v9.67l-14.43,8.33V113.64l14.43-8.33Z" style="fill:#C598CA"></path><path d="M413.55,110.58l-5.12,3v-9.67L425,94.32V104l-5.12,3V151l-6.28,3.62Z" style="fill:#C598CA"></path><g style="opacity:0.2"><path d="M270.53,237.22V183.48l6.28-3.63v53.74Z" style="fill:#fff"></path><path d="M300.36,166.25V220l-4.65,2.69-6.29-23.89v27.52l-5.81,3.36V175.93l4.65-2.69,6.28,23.89V169.61Z" style="fill:#fff"></path><path d="M309.34,170.74l-5.12,3V164l16.53-9.54v9.68l-5.12,3v44.07l-6.29,3.63Z" style="fill:#fff"></path><path d="M339,153.6l-8.15,4.7v10.75l6.89-4v9.67l-6.89,4v14L339,188v9.67L324.61,206V152.25L339,143.92Z" style="fill:#fff"></path><path d="M361.7,152.69a26,26,0,0,1-2.37,11.05c1.53.76,2.37,2.71,2.37,5.79v15.05l-6.28,3.63V173.16c0-2.15-.84-3.1-2.33-2.24l-2.32,1.34v18.63l-6.29,3.63V140.78l8.61-5c5.26-3,8.61.33,8.61,8.28Zm-6.28-5c0-2.15-.84-3.1-2.33-2.24l-2.32,1.35v15.76l2.32-1.34a5.55,5.55,0,0,0,2.33-4.93Z" style="fill:#fff"></path><path d="M384.7,117.56V171.3L380,174l-6.28-23.89v27.52L367.94,181V127.24l4.65-2.69,6.29,23.89V120.92Z" style="fill:#fff"></path><path d="M405.92,115l-8.15,4.71v10.74l6.89-4v9.67l-6.89,4v14l8.15-4.7v9.67l-14.43,8.33V113.64l14.43-8.33Z" style="fill:#fff"></path><path d="M413.55,110.58l-5.12,3v-9.67L425,94.32V104l-5.12,3V151l-6.28,3.62Z" style="fill:#fff"></path></g></g></g></svg>